<svg xmlns="http://www.w3.org/2000/svg" width="106" height="188" viewBox="0 0 106 188"><defs><style>.a,.b,.c,.h{fill:none;}.a,.b,.c,.d,.e{stroke-linecap:round;}.b,.c,.d,.e{stroke:#20588f;stroke-width:3px;}.b,.d,.e{stroke-linejoin:round;}.d{fill:#d0e8de;}.e,.g{fill:#fff;}.f,.g{stroke:none;}</style></defs><g transform="translate(-1408 -494)"><g class="a" transform="translate(1424 509)"><path class="f" d="M0,0H90V173H0Z"/><path class="g" d="M 3 3 L 3 170 L 87 170 L 87 3 L 3 3 M 0 0 L 90 0 L 90 173 L 0 173 L 0 0 Z"/></g><g class="b" transform="translate(1408 494)"><rect class="f" width="90" height="172"/><rect class="h" x="1.5" y="1.5" width="87" height="169"/></g><g transform="translate(1442.696 528.354)"><line class="c" y1="30.622" x2="30.622" transform="translate(4.593)"/><line class="c" y1="15.311" x2="15.311" transform="translate(0 6.124)"/><line class="c" y1="15.311" x2="15.311" transform="translate(27.56 6.124)"/></g><g transform="translate(1431 608)"><g transform="matrix(-0.809, 0.588, -0.588, -0.809, 28.229, 26.075)"><ellipse class="d" cx="6.439" cy="15.15" rx="6.439" ry="15.15" transform="translate(0 0)"/></g><g transform="translate(33.718 1.561) rotate(36)"><ellipse class="d" cx="6.439" cy="15.15" rx="6.439" ry="15.15" transform="translate(0 0)"/></g><path class="e" d="M602.186,96.647H587.959a2.411,2.411,0,0,1-2.253-2.278l-.911-7.9a2.52,2.52,0,0,1,2.253-2.969H603.1a2.52,2.52,0,0,1,2.253,2.969l-.911,7.9A2.411,2.411,0,0,1,602.186,96.647Z" transform="translate(-573.023 -40.415)"/><path class="e" d="M604.969,83.876H581.039a2.273,2.273,0,0,1-2.16-1.565L577.338,77.6a2.272,2.272,0,0,1,2.16-2.979H606.51a2.272,2.272,0,0,1,2.16,2.979l-1.542,4.708A2.273,2.273,0,0,1,604.969,83.876Z" transform="translate(-570.774 -39.021)"/><g transform="translate(15.918 0)"><ellipse class="d" cx="6.5" cy="15" rx="6.5" ry="15" transform="translate(-0.033 0)"/><g transform="translate(6.348 15)"><line class="c" y1="19.467" transform="translate(0 0)"/></g></g></g></g></svg>