<svg xmlns="http://www.w3.org/2000/svg" width="58.184" height="57.696" viewBox="0 0 58.184 57.696"><defs><style>.a{fill:#fff;}.a,.b{stroke:rgba(0,0,0,0);}.b,.c{fill:#20588f;}</style></defs><g transform="translate(0.519 0.5)"><path class="a" d="M0,45.088s17.5-32.215,22.143-39.5C26.527-1.3,43.834-4.48,45.735,12.116l6.421,3.722a.893.893,0,0,1,0,1.545l-6.386,3.7-.128,5.546A18.455,18.455,0,0,1,27.186,45.088Z" transform="translate(1.489 2.481)"/><path class="b" d="M880.068,207.08l-6.563-3.8a2.378,2.378,0,0,0-.939-.31,19.769,19.769,0,0,0-.714-2.819,14.723,14.723,0,0,0-2.151-4.16,12.019,12.019,0,0,0-4.765-3.805,13.8,13.8,0,0,0-5.615-1.141,17.315,17.315,0,0,0-7.476,1.746,15.287,15.287,0,0,0-3.076,1.964,11.174,11.174,0,0,0-2.3,2.564h0c-.6.94-1.385,2.25-2.313,3.838-3.245,5.55-8.21,14.48-12.371,22.032s-7.511,13.719-7.512,13.721a1.488,1.488,0,0,0,1.308,2.2h18.653v7.144a1.488,1.488,0,0,0,2.977,0V239.1h5.556v7.144a1.488,1.488,0,0,0,2.977,0v-7.365A19.939,19.939,0,0,0,872.707,219.2h0l.091-3.918a2.4,2.4,0,0,0,.707-.273l6.563-3.8a2.381,2.381,0,0,0,0-4.12Zm-37.112,2.35a12.749,12.749,0,0,1,1.079,1.108,12.062,12.062,0,0,1,1.239,1.722,11.053,11.053,0,0,1,.867,1.822,9.927,9.927,0,0,1,.485,1.852,8.782,8.782,0,0,1,.1,1.819,7.687,7.687,0,0,1-3.316,5.982,8.774,8.774,0,0,1-1.6.878,9.916,9.916,0,0,1-1.828.57,11.079,11.079,0,0,1-2,.23,12.059,12.059,0,0,1-2.118-.139,12.7,12.7,0,0,1-1.511-.327Zm6.021-10.516a8.222,8.222,0,0,1,1.7-1.873,13.073,13.073,0,0,1,3.923-2.184,14.191,14.191,0,0,1,4.727-.839,11.031,11.031,0,0,1,3.948.7,9.059,9.059,0,0,1,2.583,1.51,10.306,10.306,0,0,1,2.943,4.232,18.172,18.172,0,0,1,1.133,5.413v4.7l-.2,8.563v.034a16.962,16.962,0,0,1-16.967,16.967H828.083c1.054-1.932,2.722-4.987,4.683-8.557a15.8,15.8,0,0,0,2.648.647,15.056,15.056,0,0,0,2.641.172,14.061,14.061,0,0,0,2.546-.293,12.883,12.883,0,0,0,2.378-.743,11.762,11.762,0,0,0,2.136-1.178A10.663,10.663,0,0,0,849.7,217.9a11.765,11.765,0,0,0-.134-2.436,12.89,12.89,0,0,0-.63-2.41,14.046,14.046,0,0,0-1.1-2.314,15.052,15.052,0,0,0-1.545-2.149,15.789,15.789,0,0,0-1.914-1.871c.917-1.609,1.768-3.085,2.516-4.361.843-1.438,1.558-2.624,2.084-3.45m23.929,13V210.6l.065-2.8v-.035c0-.472-.014-.929-.034-1.379l4.749,2.753Z" transform="translate(-824.089 -191.04)"/><ellipse class="c" cx="1.984" cy="1.984" rx="1.984" ry="1.984" transform="translate(36.018 11.65)"/></g></svg>