<svg xmlns="http://www.w3.org/2000/svg" width="58.186" height="57.697" viewBox="0 0 58.186 57.697">
  <defs>
    <style>
      .cls-1, .cls-3 {
        fill: #fff;
      }

      .cls-2, .cls-4 {
        fill: #20588f;
      }

      .cls-2, .cls-3 {
        stroke: rgba(0,0,0,0);
      }
    </style>
  </defs>
  <g id="Bird_2" transform="translate(0.52 0.5)">
    <circle id="Ellipse_46" data-name="Ellipse 46" class="cls-1" cx="11.5" cy="11.5" r="11.5" transform="translate(2 14)"/>
    <path id="Path_204" data-name="Path 204" class="cls-2" d="M266.2,402.218a15.837,15.837,0,0,0-2.648-.647,15.062,15.062,0,0,0-2.641-.172,14.063,14.063,0,0,0-2.546.293,12.858,12.858,0,0,0-2.378.743,11.815,11.815,0,0,0-2.136,1.178,10.664,10.664,0,0,0-4.585,8.285,11.752,11.752,0,0,0,.134,2.436,12.931,12.931,0,0,0,.63,2.41,13.968,13.968,0,0,0,1.1,2.314,15,15,0,0,0,1.545,2.149,15.734,15.734,0,0,0,1.914,1.871l1.421-2.71a12.686,12.686,0,0,1-1.079-1.108,12.062,12.062,0,0,1-1.239-1.722,11.017,11.017,0,0,1-.867-1.822,9.936,9.936,0,0,1-.485-1.852,8.789,8.789,0,0,1-.1-1.819,7.688,7.688,0,0,1,3.316-5.982,8.79,8.79,0,0,1,1.6-.878,9.985,9.985,0,0,1,1.828-.57,11.114,11.114,0,0,1,2-.23,12.107,12.107,0,0,1,2.118.139,12.783,12.783,0,0,1,1.511.327Z" transform="translate(-248.248 -387.395)"/>
    <path id="Union_2" data-name="Union 2" class="cls-3" d="M0,45.088s17.5-32.215,22.143-39.5C26.527-1.3,43.834-4.48,45.735,12.116l6.421,3.722a.893.893,0,0,1,0,1.545l-6.386,3.7-.128,5.546A18.455,18.455,0,0,1,27.186,45.088Z" transform="translate(1.488 2.48)"/>
    <path id="Path_56" data-name="Path 56" class="cls-2" d="M880.068,207.08l-6.563-3.8a2.378,2.378,0,0,0-.939-.31,19.769,19.769,0,0,0-.714-2.819,14.723,14.723,0,0,0-2.151-4.16,12.019,12.019,0,0,0-4.765-3.805,13.8,13.8,0,0,0-5.615-1.141,17.315,17.315,0,0,0-7.476,1.746,15.287,15.287,0,0,0-3.076,1.964,11.174,11.174,0,0,0-2.3,2.564h0c-.6.94-1.385,2.25-2.313,3.838-3.245,5.55-8.21,14.48-12.371,22.032s-7.511,13.719-7.512,13.721a1.488,1.488,0,0,0,1.308,2.2h18.653v7.144a1.488,1.488,0,0,0,2.977,0V239.1h5.556v7.144a1.488,1.488,0,0,0,2.977,0v-7.365A19.939,19.939,0,0,0,872.707,219.2h0l.091-3.918a2.4,2.4,0,0,0,.707-.273l6.563-3.8a2.381,2.381,0,0,0,0-4.12Zm-31.091-8.166a8.222,8.222,0,0,1,1.7-1.873,13.073,13.073,0,0,1,3.923-2.184,14.191,14.191,0,0,1,4.727-.839,11.031,11.031,0,0,1,3.948.7,9.059,9.059,0,0,1,2.583,1.51,10.306,10.306,0,0,1,2.943,4.232,18.172,18.172,0,0,1,1.133,5.413v4.7l-.2,8.563v.034a16.962,16.962,0,0,1-16.967,16.967H828.083c1.054-1.932,18.061-32.488,18.81-33.764.843-1.438,1.558-2.624,2.084-3.45m23.929,13V210.6l.065-2.8v-.035c0-.472-.014-.929-.034-1.379l4.749,2.753Z" transform="translate(-824.09 -191.039)"/>
    <ellipse id="Ellipse_20" data-name="Ellipse 20" class="cls-4" cx="1.984" cy="1.984" rx="1.984" ry="1.984" transform="translate(36.018 11.65)"/>
  </g>
</svg>
