<svg xmlns="http://www.w3.org/2000/svg" width="334.035" height="79.74" viewBox="0 0 334.035 79.74"><defs><style>.a{fill:#fff;stroke:#20588f;stroke-linejoin:round;}.a,.b,.c{stroke-linecap:round;stroke-width:3px;}.a,.c{stroke-miterlimit:10;}.b,.c{fill:none;stroke:#fff;}.b{stroke-dasharray:12;}</style></defs><g transform="translate(1.515 1.5)"><path class="a" d="M154.7,133.591H97.059a16.341,16.341,0,0,1,25.01-18.657,24.145,24.145,0,0,1,41.783-8.06,45.66,45.66,0,0,1,85.258-2.138,32.546,32.546,0,0,1,52.6,9.7A16.337,16.337,0,0,1,326,133.591H194.829" transform="translate(-43.447 -76.464)"/><path class="b" d="M116.108,0H0" transform="translate(148.609 76.739)"/><line class="c" x1="36.439" y2="0.373" transform="translate(0 57.127)"/><line class="c" x1="28.026" y1="0.373" transform="translate(302.974 57.127)"/><line class="c" x1="38.204" transform="translate(93.478 67.739)"/></g></svg>