<svg xmlns="http://www.w3.org/2000/svg" width="246.059" height="59.627" viewBox="0 0 246.059 59.627"><defs><style>.a{fill:#fff;stroke:#20588f;stroke-linejoin:round;}.a,.b,.c{stroke-linecap:round;stroke-miterlimit:10;stroke-width:3px;}.b,.c{fill:none;stroke:#fff;}.b{stroke-dasharray:12;}</style></defs><g transform="translate(1.5 1.5)"><path class="a" d="M694.4,145.228h45.344a12.587,12.587,0,0,0-11.806-16.768,12.387,12.387,0,0,0-7.33,2.4,18.428,18.428,0,0,0-31.972-6.206A34.856,34.856,0,0,0,623.4,123a24.818,24.818,0,0,0-40.246,7.472,12.4,12.4,0,0,0-6.779-2.016,12.581,12.581,0,0,0-11.805,16.768l100.48.956" transform="translate(-528.147 -101.23)"/><line class="b" x2="73.941" transform="translate(50.072 56.627)"/><line class="c" x2="16.934" transform="translate(226.125 43.998)"/><line class="c" x2="12.713" transform="translate(0 43.998)"/><line class="c" x2="29.232" transform="translate(151.866 56.627)"/></g></svg>