<svg xmlns="http://www.w3.org/2000/svg" width="115.328" height="115.329" viewBox="0 0 115.328 115.329"><defs><style>.a{fill:#fde1c8;}.a,.c{stroke:#20588f;}.a,.b,.c{stroke-linecap:round;stroke-linejoin:round;stroke-width:3px;}.b,.c{fill:none;}.b{stroke:#fff;stroke-dasharray:2 8;}</style></defs><g transform="translate(1.914 1.914)"><ellipse class="a" cx="27.394" cy="27.394" rx="27.394" ry="27.394" transform="translate(22.794 77.079) rotate(-76.717)"/><line class="b" y1="13.136" transform="translate(55.75 7.369)"/><line class="b" y1="13.136" transform="translate(55.75 90.994)"/><line class="b" y1="9.289" x2="9.289" transform="translate(80.671 21.54)"/><line class="b" y1="9.289" x2="9.289" transform="translate(21.54 80.671)"/><line class="b" x2="13.136" transform="translate(90.994 55.75)"/><line class="b" x2="13.137" transform="translate(7.369 55.75)"/><line class="b" x2="9.289" y2="9.289" transform="translate(80.671 80.671)"/><line class="b" x2="9.289" y2="9.289" transform="translate(21.54 21.54)"/><line class="c" y1="15.138" x2="5.355" transform="translate(70.116)"/><line class="c" y1="15.138" x2="5.355" transform="translate(36.03 96.362)"/><line class="c" y1="6.918" x2="14.49" transform="translate(94.625 30.273)"/><line class="c" y1="6.918" x2="14.49" transform="translate(2.384 74.309)"/><line class="c" x2="15.138" y2="5.355" transform="translate(96.362 70.116)"/><line class="c" x2="15.138" y2="5.355" transform="translate(0 36.03)"/><line class="c" x2="6.918" y2="14.49" transform="translate(74.309 94.626)"/><line class="c" x2="6.918" y2="14.49" transform="translate(30.273 2.385)"/></g></svg>