<svg id="Label_2" data-name="Label 2" xmlns="http://www.w3.org/2000/svg" width="114.976" height="31.022" viewBox="0 0 114.976 31.022">
  <defs>
    <style>
      .cls-1 {
        fill: #fde1c8;
      }

      .cls-2, .cls-4 {
        fill: #20588f;
      }

      .cls-2 {
        font-size: 14px;
        font-family: SourceSansPro-Bold, Source Sans Pro;
        font-weight: 700;
      }

      .cls-3, .cls-4 {
        stroke: none;
      }
    </style>
  </defs>
  <g id="Union_3" data-name="Union 3" class="cls-1" transform="translate(26)">
    <path class="cls-3" d="M 64.50031280517578 29.52209663391113 L -10.50030136108398 29.52209663391113 C -14.23947048187256 29.52209663391113 -17.75493240356445 28.0648193359375 -20.39911651611328 25.41872787475586 C -23.04367065429688 22.77226638793945 -24.50010108947754 19.25349617004395 -24.50010108947754 15.51060390472412 C -24.50010108947754 11.76811218261719 -23.04368591308594 8.249619483947754 -20.39913177490234 5.603281021118164 C -17.75490188598633 2.957234859466553 -14.23942470550537 1.500004053115845 -10.50030136108398 1.500004053115845 L 64.50031280517578 1.500004053115845 C 67.22966766357422 1.500004053115845 69.87413024902344 2.286050319671631 72.14783477783203 3.773188591003418 C 74.36565399169922 5.22377347946167 76.12163543701172 7.260035037994385 77.22592926025391 9.661819458007812 L 77.42823791503906 10.10185050964355 L 77.84967041015625 10.34048080444336 L 86.96096801757812 15.49979782104492 L 77.86331176757812 20.65138816833496 L 77.44034576416016 20.89089584350586 L 77.23823547363281 21.33294296264648 C 76.13685607910156 23.74191093444824 74.38082122802734 25.78478813171387 72.15998840332031 27.24074172973633 C 69.88345336914062 28.73321914672852 67.23477935791016 29.52209663391113 64.50031280517578 29.52209663391113 Z"/>
    <path class="cls-4" d="M 64.50030517578125 28.02210426330566 C 66.94178009033203 28.02210426330566 69.30606842041016 27.31812286376953 71.33760070800781 25.98628616333008 C 73.32168579101562 24.6855411529541 74.890380859375 22.86075973510742 75.87406921386719 20.70923233032227 L 76.27828979492188 19.82512283325195 L 77.12421417236328 19.34612274169922 L 83.91675567626953 15.49979972839355 L 77.11054229736328 11.64574146270752 L 76.26766967773438 11.1684684753418 L 75.86305236816406 10.28841400146484 C 74.87680053710938 8.143304824829102 73.30818176269531 6.324450016021729 71.3267822265625 5.028504848480225 C 69.29779815673828 3.701450109481812 66.937255859375 2.999995708465576 64.50030517578125 2.999995708465576 L -10.50029277801514 2.999995708465576 C -13.83856582641602 2.999995708465576 -16.97723770141602 4.301068305969238 -19.33811187744141 6.663559436798096 C -21.69958305358887 9.026632308959961 -23.00009346008301 12.16857719421387 -23.00009346008301 15.51059532165527 C -23.00009346008301 18.85303115844727 -21.69956588745117 21.99526786804199 -19.33807563781738 24.35846900939941 C -16.97723770141602 26.72099494934082 -13.83858394622803 28.02210426330566 -10.50029277801514 28.02210426330566 L 64.50030517578125 28.02210426330566 M 64.50030517578125 31.02210426330566 L -10.50029277801514 31.02210426330566 C -19.06020164489746 31.02210426330566 -26.00009346008301 24.07770538330078 -26.00009346008301 15.51059532165527 C -26.00009346008301 6.944395542144775 -19.06020164489746 -4.321150299801957e-06 -10.50029277801514 -4.321150299801957e-06 L 64.50030517578125 -4.321150299801957e-06 C 70.75043487548828 -4.321150299801957e-06 76.13694000244141 3.702522993087769 78.58876037597656 9.035213470458984 L 88.46820068359375 14.6295051574707 C 89.14499664306641 15.01290512084961 89.14499664306641 15.9875955581665 88.46820068359375 16.37010383605957 L 78.60243225097656 21.95664978027344 C 76.15690612792969 27.30550384521484 70.76192474365234 31.02210426330566 64.50030517578125 31.02210426330566 Z"/>
  </g>
  <text id="Aksesspunkt" class="cls-2" transform="translate(13 6.004)"><tspan x="0.961" y="14">Aksesspunkt</tspan></text>
</svg>
