<svg xmlns="http://www.w3.org/2000/svg" width="178.245" height="178.508" viewBox="0 0 178.245 178.508"><defs><style>.a{fill:#fde1c8;}.a,.b{stroke:#20588f;stroke-linecap:round;stroke-linejoin:round;stroke-width:5px;}.b{fill:#fff;}</style></defs><g transform="translate(2.5 2.5)"><g transform="translate(-156 -364)"><rect class="a" width="24.134" height="40.108" transform="translate(230.531 473.945)"/><path class="a" d="M313.222,167.517c36.8,0,66.632-39.182,66.632-87.517H316.122Z" transform="translate(-50.609 300.534)"/><path class="a" d="M75.049,167.517c-36.8,0-66.632-39.182-66.632-87.517H72.149Z" transform="translate(147.583 300.534)"/><path class="a" d="M201.977,7c0,69.289-28.158,125.459-62.891,125.459S76.195,76.289,76.195,7Z" transform="translate(103.512 357)"/><path class="a" d="M116.484,459.454V449a13.041,13.041,0,0,1,13-13H201.08a13.041,13.041,0,0,1,13,13v10.452Z" transform="translate(77.315 78.053)"/></g><path class="b" d="M162.754,10.519,172,29.251l20.672,3L177.712,46.836l3.531,20.589L162.754,57.7l-18.49,9.721L147.8,46.836,132.837,32.255l20.672-3Z" transform="translate(-75.837 11.721)"/></g></svg>