<svg id="help" xmlns="http://www.w3.org/2000/svg" width="30" height="30" viewBox="0 0 30 30">
  <defs>
    <style>
      .cls-1 {
        fill: #fff;
        stroke: #20588f;
        stroke-width: 2px;
      }

      .cls-2 {
        fill: #20588f;
      }

      .cls-3 {
        stroke: none;
      }

      .cls-4 {
        fill: none;
      }
    </style>
  </defs>
  <g id="Ellipse_44" data-name="Ellipse 44" class="cls-1">
    <circle class="cls-3" cx="15" cy="15" r="15"/>
    <circle class="cls-4" cx="15" cy="15" r="14"/>
  </g>
  <path id="Path_201" data-name="Path 201" class="cls-2" d="M-6.18-4.62a3.05,3.05,0,0,1,.05-1.24A4.22,4.22,0,0,1-5.7-6.9a5.671,5.671,0,0,1,.63-.88q.35-.4.67-.77a5.207,5.207,0,0,0,.53-.72A1.4,1.4,0,0,0-3.66-10a1.175,1.175,0,0,0-.37-.94A1.43,1.43,0,0,0-5-11.26a1.875,1.875,0,0,0-.99.26,4.4,4.4,0,0,0-.83.66l-1.62-1.48a5.466,5.466,0,0,1,1.67-1.32,4.622,4.622,0,0,1,2.15-.5,5.332,5.332,0,0,1,1.49.2,3.314,3.314,0,0,1,1.2.62,2.881,2.881,0,0,1,.8,1.07,3.729,3.729,0,0,1,.29,1.53,2.682,2.682,0,0,1-.22,1.11,4.353,4.353,0,0,1-.55.91q-.33.42-.7.81a8.58,8.58,0,0,0-.68.81,3.757,3.757,0,0,0-.49.89A2.318,2.318,0,0,0-3.6-4.62ZM-4.9.24A1.659,1.659,0,0,1-6.16-.29a1.836,1.836,0,0,1-.5-1.31,1.862,1.862,0,0,1,.5-1.33A1.659,1.659,0,0,1-4.9-3.46a1.691,1.691,0,0,1,1.27.53A1.842,1.842,0,0,1-3.12-1.6,1.816,1.816,0,0,1-3.63-.29,1.691,1.691,0,0,1-4.9.24Z" transform="translate(20 22)"/>
</svg>
