<svg xmlns="http://www.w3.org/2000/svg" width="112" height="70" viewBox="0 0 112 70"><defs><style>.a,.b{fill:#fff;}.a,.b,.c,.d{stroke:#20588f;stroke-width:3px;}.b,.c{stroke-linejoin:round;}.c{fill:#ceddea;}.c,.d{stroke-linecap:round;}.d,.f{fill:none;}.e{stroke:none;}</style></defs><g class="a" transform="translate(7.875)"><path class="e" d="M8,0H88.25a8,8,0,0,1,8,8V59.5a0,0,0,0,1,0,0H0a0,0,0,0,1,0,0V8A8,8,0,0,1,8,0Z"/><path class="f" d="M8,1.5H88.25A6.5,6.5,0,0,1,94.75,8V56.5a1.5,1.5,0,0,1-1.5,1.5H3a1.5,1.5,0,0,1-1.5-1.5V8A6.5,6.5,0,0,1,8,1.5Z"/></g><g class="b" transform="translate(0 56.875)"><path class="e" d="M0,0H112a0,0,0,0,1,0,0V5.125a8,8,0,0,1-8,8H8a8,8,0,0,1-8-8V0A0,0,0,0,1,0,0Z"/><path class="f" d="M3,1.5H109A1.5,1.5,0,0,1,110.5,3V5.125a6.5,6.5,0,0,1-6.5,6.5H8a6.5,6.5,0,0,1-6.5-6.5V3A1.5,1.5,0,0,1,3,1.5Z"/></g><g class="c" transform="translate(16.625 8.75)"><rect class="e" width="78.75" height="43.75"/><rect class="f" x="1.5" y="1.5" width="75.75" height="40.75"/></g><g transform="translate(43.75 21.875)"><line class="d" y1="17.5" x2="17.5" transform="translate(2.625)"/><line class="d" y1="8.75" x2="8.75" transform="translate(0 3.5)"/><line class="d" y1="8.75" x2="8.75" transform="translate(15.75 3.5)"/></g><line class="d" x2="30" transform="translate(41.5 63.5)"/></svg>