<svg xmlns="http://www.w3.org/2000/svg" width="90" height="90" viewBox="0 0 90 90"><defs><style>.a{fill:#fff;}.a,.b,.c,.d{stroke:#20588f;stroke-width:3px;}.b,.d,.f{fill:none;}.b{stroke-linecap:round;}.c{fill:#ceddea;}.e{stroke:none;}</style></defs><g class="a" transform="translate(40.109)"><rect class="e" width="49.891" height="90" rx="8"/><rect class="f" x="1.5" y="1.5" width="46.891" height="87" rx="6.5"/></g><line class="b" y2="7.2" transform="translate(80.455 73.35)"/><line class="b" y2="7.2" transform="translate(75.909 73.35)"/><line class="b" x2="27.273" transform="translate(54.091 12.15)"/><g class="c" transform="translate(72.391 20.543)"><circle class="e" cx="5.38" cy="5.38" r="5.38"/><circle class="f" cx="5.38" cy="5.38" r="3.88"/></g><g class="c" transform="translate(72.391 36.196)"><circle class="e" cx="5.38" cy="5.38" r="5.38"/><circle class="f" cx="5.38" cy="5.38" r="3.88"/></g><g class="a" transform="translate(0 20.543)"><rect class="e" width="68.478" height="52.826" rx="8"/><rect class="f" x="1.5" y="1.5" width="65.478" height="49.826" rx="6.5"/></g><g class="a" transform="translate(25.435 71.413)"><rect class="e" width="17.609" height="18.587"/><rect class="f" x="1.5" y="1.5" width="14.609" height="15.587"/></g><g class="a" transform="translate(15.652 81.196)"><rect class="e" width="36.196" height="8.804" rx="4.402"/><rect class="f" x="1.5" y="1.5" width="33.196" height="5.804" rx="2.902"/></g><line class="d" x2="65.455" transform="translate(1.364 64.35)"/><line class="b" x1="8.182" y2="8.1" transform="translate(7.727 28.35)"/><line class="b" x1="17.273" y2="17.1" transform="translate(7.727 28.35)"/></svg>