<svg xmlns="http://www.w3.org/2000/svg" width="90" height="90" viewBox="0 0 90 90"><defs><style>.a{fill:#fff;}.a,.b,.c,.d{stroke:#20588f;stroke-width:3px;}.b,.d,.f{fill:none;}.b{stroke-linecap:round;}.c{fill:#ceddea;}.e{stroke:none;}</style></defs><g class="a" transform="translate(40)"><rect class="e" width="50" height="90" rx="8"/><rect class="f" x="1.5" y="1.5" width="47" height="87" rx="6.5"/></g><line class="b" y2="7.2" transform="translate(80.455 73.35)"/><line class="b" y2="7.2" transform="translate(75.909 73.35)"/><line class="b" x2="27.273" transform="translate(54.091 12.15)"/><g class="c" transform="translate(72.727 20.7)"><ellipse class="e" cx="5.455" cy="5.4" rx="5.455" ry="5.4"/><ellipse class="f" cx="5.455" cy="5.4" rx="3.955" ry="3.9"/></g><g class="c" transform="translate(72.727 36)"><ellipse class="e" cx="5.455" cy="5.4" rx="5.455" ry="5.4"/><ellipse class="f" cx="5.455" cy="5.4" rx="3.955" ry="3.9"/></g><g class="a" transform="translate(0 20.7)"><rect class="e" width="68.182" height="53.1" rx="8"/><rect class="f" x="1.5" y="1.5" width="65.182" height="50.1" rx="6.5"/></g><g class="a" transform="translate(25.455 71.1)"><rect class="e" width="17.273" height="18.9"/><rect class="f" x="1.5" y="1.5" width="14.273" height="15.9"/></g><g class="a" transform="translate(15.455 81)"><rect class="e" width="36.364" height="9" rx="4.5"/><rect class="f" x="1.5" y="1.5" width="33.364" height="6" rx="3"/></g><line class="d" x2="65.455" transform="translate(1.364 64.35)"/><line class="b" x1="8.182" y2="8.1" transform="translate(7.727 28.35)"/><line class="b" x1="17.273" y2="17.1" transform="translate(7.727 28.35)"/><g transform="translate(-934.151 -916)"><line class="b" y2="12.5" transform="translate(953.901 920)"/><line class="b" y2="12.5" transform="translate(960.151 926.25) rotate(90)"/></g></svg>