<svg xmlns="http://www.w3.org/2000/svg" width="79.957" height="100" viewBox="0 0 79.957 100"><defs><style>.a,.c{fill:#fff;}.a,.b,.c,.d{stroke:#20588f;stroke-width:3px;}.b,.d,.f{fill:none;}.c,.d{stroke-linecap:round;}.c{stroke-miterlimit:10;}.e{stroke:none;}</style></defs><g transform="translate(0.33)"><g class="a"><rect class="e" width="78" height="78" rx="8"/><rect class="f" x="1.5" y="1.5" width="75" height="75" rx="6.5"/></g><line class="b" x1="73.775" transform="translate(2.088 27.083)"/><line class="b" x1="73.775" transform="translate(2.088 52.083)"/><line class="b" y2="13.889" transform="translate(39.671 75)"/><line class="b" x2="50.111" transform="translate(14.616 89.583)"/><ellipse class="c" cx="6.463" cy="6.449" rx="6.463" ry="6.449" transform="translate(1.17 83.596)"/><ellipse class="c" cx="6.463" cy="6.449" rx="6.463" ry="6.449" transform="translate(65.2 83.596)"/><line class="d" x2="30.623" transform="translate(34.103 14.583)"/><line class="d" x2="4.176" transform="translate(11.832 14.583)"/><line class="d" x2="4.176" transform="translate(11.832 39.583)"/><line class="d" x2="4.176" transform="translate(11.832 64.583)"/><line class="d" x2="4.176" transform="translate(22.968 14.583)"/><line class="d" x2="4.176" transform="translate(22.968 39.583)"/><line class="d" x2="4.176" transform="translate(22.968 64.583)"/><line class="d" x2="30.623" transform="translate(34.103 39.583)"/><line class="d" x2="30.623" transform="translate(34.103 64.583)"/><g class="a" transform="translate(28 83)"><rect class="e" width="25" height="17" rx="5"/><rect class="f" x="1.5" y="1.5" width="22" height="14" rx="3.5"/></g></g></svg>