<svg xmlns="http://www.w3.org/2000/svg" width="47" height="57" viewBox="0 0 47 57"><defs><style>.a{fill:#fff;stroke:#20588f;stroke-linecap:round;stroke-linejoin:round;stroke-width:3px;}.b{fill:#a5bcd3;}.c{stroke:none;}.d{fill:none;}</style></defs><g class="a"><rect class="c" width="47" height="57" rx="8"/><rect class="d" x="1.5" y="1.5" width="44" height="54" rx="6.5"/></g><g transform="translate(7 7)"><g transform="translate(25 1)"><circle class="b" cx="4" cy="4" r="4"/></g><g transform="translate(25 12)"><circle class="b" cx="4" cy="4" r="4"/></g><g transform="translate(13 1)"><rect class="b" width="8" height="8" rx="1"/></g><g transform="translate(13 12)"><rect class="b" width="8" height="8" rx="1"/></g><path class="b" d="M3.606,1.789a1,1,0,0,1,1.789,0L8.276,7.553A1,1,0,0,1,7.382,9H1.618A1,1,0,0,1,.724,7.553Z"/><g transform="translate(0 11)"><path class="b" d="M3.606,1.789a1,1,0,0,1,1.789,0L8.276,7.553A1,1,0,0,1,7.382,9H1.618A1,1,0,0,1,.724,7.553Z"/></g><g transform="translate(25 23)"><circle class="b" cx="4" cy="4" r="4"/></g><g transform="translate(25 34)"><circle class="b" cx="4" cy="4" r="4"/></g><g transform="translate(13 23)"><rect class="b" width="8" height="8" rx="1"/></g><g transform="translate(13 34)"><rect class="b" width="8" height="8" rx="1"/></g><g transform="translate(0 22)"><path class="b" d="M3.606,1.789a1,1,0,0,1,1.789,0L8.276,7.553A1,1,0,0,1,7.382,9H1.618A1,1,0,0,1,.724,7.553Z"/></g><g transform="translate(0 33)"><path class="b" d="M3.606,1.789a1,1,0,0,1,1.789,0L8.276,7.553A1,1,0,0,1,7.382,9H1.618A1,1,0,0,1,.724,7.553Z"/></g></g></svg>