<svg xmlns="http://www.w3.org/2000/svg" width="218.852" height="58.66" viewBox="0 0 218.852 58.66"><defs><style>.a{fill:#fff;stroke:#20588f;}.a,.b{stroke-linecap:round;stroke-linejoin:round;stroke-width:3px;}.b{fill:none;stroke:#fff;}.c{fill:#20588f;}</style></defs><g transform="translate(1.5 1.5)"><path class="a" d="M326.019,119.1a11.125,11.125,0,0,0,.062,1.436H480.626a11.769,11.769,0,0,0,.059-1.436,15.822,15.822,0,0,0-15.831-15.831,38.383,38.383,0,0,0-38.392-38.392,37.861,37.861,0,0,0-21.933,6.909,15.841,15.841,0,0,0-28.2,9.9,26.647,26.647,0,0,0-26.485,23.825,15.408,15.408,0,0,0-8.056-2.243A15.809,15.809,0,0,0,326.019,119.1Z" transform="translate(-264.832 -64.878)"/><line class="b" x1="25.187" transform="translate(23.741 55.66)"/><line class="b" x1="8.635" transform="translate(0 55.66)"/><path class="c" d="M-22.49,0l-2.48-9.92h2.92l.96,4.6q.12.74.22,1.46t.22,1.48h.08q.14-.76.27-1.5t.31-1.44l1.1-4.6h2.54l1.12,4.6q.18.74.32,1.46t.3,1.48h.08q.14-.76.23-1.48t.23-1.46l.94-4.6h2.72L-12.79,0h-3.44l-.9-3.96q-.16-.7-.28-1.4t-.26-1.5h-.08q-.14.8-.25,1.5t-.25,1.4L-19.13,0ZM-6.97,0-9.45-9.92h2.92l.96,4.6q.12.74.22,1.46t.22,1.48h.08q.14-.76.27-1.5t.31-1.44l1.1-4.6H-.83L.29-5.32q.18.74.32,1.46t.3,1.48H.99q.14-.76.23-1.48t.23-1.46l.94-4.6H5.11L2.73,0H-.71l-.9-3.96q-.16-.7-.28-1.4t-.26-1.5h-.08q-.14.8-.25,1.5t-.25,1.4L-3.61,0ZM8.55,0,6.07-9.92H8.99l.96,4.6q.12.74.22,1.46t.22,1.48h.08q.14-.76.27-1.5t.31-1.44l1.1-4.6h2.54l1.12,4.6q.18.74.32,1.46t.3,1.48h.08q.14-.76.23-1.48t.23-1.46l.94-4.6h2.72L18.25,0H14.81l-.9-3.96q-.16-.7-.28-1.4t-.26-1.5h-.08q-.14.8-.25,1.5t-.25,1.4L11.91,0Zm13.9.24a1.691,1.691,0,0,1-1.27-.53,1.816,1.816,0,0,1-.51-1.31,1.842,1.842,0,0,1,.51-1.33,1.691,1.691,0,0,1,1.27-.53,1.691,1.691,0,0,1,1.27.53,1.842,1.842,0,0,1,.51,1.33,1.816,1.816,0,0,1-.51,1.31A1.691,1.691,0,0,1,22.45.24Z" transform="translate(146.773 38.426)"/></g></svg>